<?xml version="1.0" encoding="utf-8"?>
<!-- Generator: Adobe Illustrator 18.0.0, SVG Export Plug-In . SVG Version: 6.00 Build 0)  -->
<!DOCTYPE svg PUBLIC "-//W3C//DTD SVG 1.1//EN" "http://www.w3.org/Graphics/SVG/1.1/DTD/svg11.dtd">
<svg version="1.1" id="Layer_1" xmlns="http://www.w3.org/2000/svg" xmlns:xlink="http://www.w3.org/1999/xlink" x="0px" y="0px"
	 viewBox="0 0 250 235" enable-background="new 0 0 250 235" xml:space="preserve">
<rect y="-1" fill="none" width="250" height="235"/>
<g id="mobile">
	<path fill="#FFFFFF" d="M41.1,148.1h25.6c0,6,0,10.2,0,16.2c-14.5,0-29.4,0-43.8,0V93.8c6,0,12,0,18.1,0
		C41.1,130.3,41.1,118.1,41.1,148.1z"/>
	<path fill="#FFFFFF" d="M123.1,109.9c-10.5,0-15.7,0-26.1,0v10h24c0,5.3,0,10.7,0,16H97c0,4.1,0,8.2,0,12.4c10.4,0,16.4,0,27,0
		c0,5.2,0,10.7,0,16c-16.5,0-28.6,0-45,0c0-23.6,0-47.2,0-70.6c16.3,0,27.5,0,44.1,0C123.1,99.1,123.1,104.5,123.1,109.9z"/>
	<path fill="#FFFFFF" d="M157.9,141.5v22.9c-6,0-12.2,0-18.3,0V93.8c14.4,0,29.5,0,44,0c0,5.9,0,10.1,0,16.1h-25.6v15.4h22.7
		c0,6,0,9.9,0,16.1H157.9z"/>
	<path fill="#FFFFFF" d="M190.5,109.9c0-5.4,0-10.8,0-16.1h52.4c0,5.3,0,10.7,0,16.1h-17.2v54.4c-5.9,0-11.9,0-17.8,0v-54.4H190.5z"
		/>
</g>
<g id="mobile">
	<path fill="#FFFFFF" d="M71.5,235.5c-13.7,0-23.2-10.8-23.2-26c0-23.4,20.9-47.3,41.6-47.3c12.7,0,23,9.8,23,26.3
		C112.9,212.8,91.7,235.5,71.5,235.5z M89.2,164.6c-8.8,0-18,7.4-23.3,16.9c-7.1,12.3-8.5,26.4-8.5,31.1c0,12,5.7,20.3,14.8,20.3
		c7.6,0,16.6-6,23.1-17.2c5.4-9.2,9-22.6,9-31.5C104.3,170.7,97,164.6,89.2,164.6z"/>
	<path fill="#FFFFFF" d="M186.4,167.4c-2.9,0.1-8.6,0.4-10.2,6.9l-9.2,36.9c-2.7,11.1-13.9,24.2-26.8,24.2c-9.5,0-18-6.9-18-19
		c0-1,0-3.2,0.8-6.5l9.7-39c0.4-1.4,0.4-1.6,0.4-1.9c0-1.7-2.7-1.7-5.9-1.7c-1.9,0-2.7,0-2.7-1.2c0-1.9,1.3-1.9,1.9-1.9
		c3.9,0,8.1,0.3,12.1,0.3c3.9,0,8.1-0.3,11.9-0.3c0.7,0,1.4,0.2,1.4,1.3c0,1.8-0.9,1.8-3,1.8c-6.4,0-7.2,0.8-8,4l-10.1,40.6
		c-0.5,2.2-1,5.5-1,7.7c0,9.2,5.6,12.6,10.8,12.6c9.5,0,20.2-9.2,23.4-22.2l9-35.9c0.2-0.8,0.4-1.5,0.4-2.4c0-2.1-0.8-4.1-6.1-4.3
		c-0.9,0-1.8-0.1-1.8-1.2c0-1.9,1.3-1.9,1.8-1.9c3.1,0,6.5,0.3,9.7,0.3c3.1,0,6.5-0.3,9.5-0.3c0.9,0,1.3,0.5,1.3,1.3
		C187.9,167.3,186.7,167.4,186.4,167.4z"/>
	<path fill="#FFFFFF" d="M244.5,187.6c-0.5,0-1.5,0-1.5-1.3c0,0,0-0.4,0.2-1.5c1-6,1-7.9,1-9.1c0-6.3-2.3-7.7-12.8-7.7
		c-1.7,0-4.4,0-5.2,0.2c-0.8,0.1-1.6,0.3-2.3,3.3l-13.5,54.3c-0.4,1.4-0.4,1.6-0.4,1.9c0,1.4,0.5,1.8,3.3,2.1c0.3,0,3.4,0.2,5,0.2
		h1.5c1.5,0,2.5,0,2.5,1.1c0,2-1.2,2-2.1,2c-5.1,0-10.6-0.3-15.8-0.3c-5.1,0-10.5,0.3-15.6,0.3c-0.5,0-1.7,0-1.7-1.2
		c0-1.9,1.1-1.9,2.8-1.9h1.6c8.9,0,9.8-1,10.7-4.5l13.5-54.2c0.2-0.6,0.4-1.5,0.4-2.2c0-0.7,0-1.1-2.3-1.1h-3.4
		c-13,0-15.8,2.1-20.6,16.4c-1,2.6-1.1,2.7-1.3,2.9c-0.3,0.3-0.7,0.3-1.1,0.3c-0.3,0-1.5,0-1.5-1.1c0,0,0-0.4,0.5-1.7l6-18.1
		c0.6-1.8,0.9-1.8,2.9-1.8h51.8c1.6,0,2.5,0,2.5,1.2c0,0.4,0,0.9-0.1,1.3l-3,18.1C246,187.3,245.8,187.6,244.5,187.6z"/>
</g>
</svg>